<?xml version="1.0" standalone="no"?>
<!DOCTYPE svg PUBLIC "-//W3C//DTD SVG 20010904//EN"
 "http://www.w3.org/TR/2001/REC-SVG-20010904/DTD/svg10.dtd">
<svg version="1.0" xmlns="http://www.w3.org/2000/svg"
 width="512.000000pt" height="512.000000pt" viewBox="0 0 512.000000 512.000000"
 preserveAspectRatio="xMidYMid meet">

<g transform="translate(0.000000,512.000000) scale(0.100000,-0.100000)"
fill="#ffffff7e" stroke="none">
<path d="M2422 4841 c-70 -72 -124 -104 -269 -162 -122 -48 -200 -93 -318
-182 -126 -94 -133 -109 -87 -172 37 -51 219 -156 317 -183 46 -12 71 -25 73
-35 5 -27 -27 -138 -58 -202 -17 -34 -60 -92 -100 -134 -38 -40 -70 -81 -70
-91 0 -22 -40 -80 -99 -146 -25 -28 -73 -100 -105 -160 -39 -72 -77 -126 -112
-159 -41 -41 -53 -60 -59 -95 -15 -86 -8 -147 20 -195 l26 -45 -66 0 c-78 0
-83 -7 -58 -76 20 -52 47 -69 56 -34 4 16 13 20 47 20 38 0 47 -5 84 -46 22
-25 41 -53 41 -62 0 -9 9 -18 20 -20 11 -2 23 -7 27 -11 4 -4 37 -105 72 -225
59 -203 62 -219 45 -223 -24 -7 -24 -13 2 -93 25 -80 20 -184 -11 -200 -40
-21 -119 -11 -193 24 -129 61 -316 92 -456 76 -297 -34 -541 -196 -686 -455
-194 -347 -132 -785 151 -1069 146 -145 286 -211 543 -257 91 -16 197 -3 324
40 164 56 264 116 371 224 l69 70 86 9 c112 11 265 -7 236 -28 -28 -21 -6 -64
33 -64 15 0 33 -5 40 -12 17 -17 60 5 67 35 4 15 19 28 41 36 24 9 34 18 30
27 -3 9 6 19 27 27 43 18 60 41 52 67 -6 20 -13 21 -67 18 -72 -4 -84 10 -35
40 102 59 150 220 102 335 -15 35 -14 40 2 60 52 66 379 445 518 601 88 98
172 193 187 210 21 25 29 28 39 19 10 -10 9 -16 -4 -31 -9 -10 -17 -27 -18
-38 0 -11 -24 -38 -55 -63 -119 -93 -228 -265 -280 -438 -35 -115 -39 -314
-10 -437 63 -273 241 -497 491 -623 33 -17 107 -45 164 -63 91 -28 119 -32
230 -33 144 -2 194 8 324 63 137 59 194 97 298 200 143 141 219 288 254 487
49 278 -39 560 -239 771 -154 162 -341 255 -567 283 -95 11 -247 1 -304 -21
-44 -17 -46 -12 -11 35 55 71 71 147 53 241 -8 39 -6 43 29 75 21 19 52 48 70
66 17 18 34 29 38 26 14 -14 4 -57 -19 -85 -14 -16 -25 -38 -25 -49 0 -30 25
-82 49 -103 26 -23 37 -16 21 14 -7 13 -9 37 -5 62 l7 40 26 -36 c14 -20 29
-36 33 -36 4 0 5 24 2 53 -3 30 2 84 11 127 9 41 16 89 16 106 0 20 9 39 25
54 31 29 31 42 3 74 -40 43 -61 42 -107 -5 l-42 -41 -102 7 c-117 8 -161 26
-198 78 -13 19 -60 79 -103 132 -43 54 -99 128 -125 164 -25 36 -71 99 -103
139 -52 65 -124 200 -150 277 -5 17 -11 64 -12 105 -3 88 -27 161 -111 333
l-56 117 12 55 c11 51 14 55 41 55 67 0 158 167 158 288 0 34 7 79 15 99 9 20
15 66 15 108 l0 73 -52 46 c-57 50 -122 86 -155 86 -11 0 -54 -8 -95 -19 -59
-14 -89 -29 -139 -68 -101 -78 -127 -150 -98 -283 8 -39 16 -51 34 -56 18 -5
24 -15 30 -52 4 -26 11 -55 16 -64 15 -29 -15 -22 -83 17 -76 45 -180 74 -288
81 -77 5 -203 35 -223 54 -4 4 21 33 55 66 118 110 282 214 339 214 20 0 39
11 65 40 27 29 43 38 58 35 22 -6 86 28 86 44 0 10 -75 101 -94 113 -20 13
-26 9 -94 -61z m361 -1476 c27 -38 90 -140 140 -225 82 -138 104 -167 201
-263 61 -60 149 -143 198 -184 48 -42 88 -81 88 -87 0 -12 -108 -36 -163 -36
-32 0 -89 -33 -84 -48 1 -4 -10 -29 -23 -57 -17 -34 -25 -69 -27 -108 -1 -32
-3 -61 -6 -63 -4 -4 -444 -44 -482 -44 -16 1 -11 9 25 41 25 23 61 49 81 59
40 21 141 126 165 172 13 25 14 38 4 77 -6 26 -20 62 -30 79 -22 35 -151 134
-305 234 -67 43 -109 78 -127 105 -33 50 -79 86 -131 103 -21 6 -37 15 -35 18
16 36 103 137 143 167 85 64 254 138 300 132 12 -1 39 -30 68 -72z m-1098
-596 c12 -19 -5 -23 -22 -6 -16 16 -16 17 -1 17 9 0 20 -5 23 -11z m707 -219
c50 -12 95 -23 100 -26 5 -4 -21 -26 -59 -51 -37 -25 -85 -62 -105 -81 l-38
-36 0 43 c0 23 -5 62 -11 86 -8 31 -8 49 0 64 14 25 2 25 113 1z m1044 -61
c24 -6 47 -15 50 -20 9 -15 -24 -112 -49 -143 -23 -28 -25 -29 -46 -14 -26 19
-81 123 -81 155 0 34 45 42 126 22z m411 -26 c-3 -10 -5 -4 -5 12 0 17 2 24 5
18 2 -7 2 -21 0 -30z m-297 -17 c16 -25 30 -51 30 -60 0 -13 -118 -81 -127
-72 -2 2 6 19 17 39 11 19 23 58 27 86 3 28 9 51 14 51 4 0 22 -20 39 -44z
m39 15 c21 -29 28 -61 14 -61 -10 0 -53 66 -53 80 0 19 19 10 39 -19z m-393
-13 c24 -28 44 -72 44 -98 0 -35 -72 -56 -84 -24 -3 9 -6 42 -6 73 0 77 11 88
46 49z m-59 -135 c-3 -10 -5 -4 -5 12 0 17 2 24 5 18 2 -7 2 -21 0 -30z m500
-131 c-5 -71 -40 -138 -93 -179 l-32 -24 -61 115 c-34 63 -61 117 -61 120 0 3
7 6 15 6 8 0 15 -7 15 -15 0 -36 97 -4 170 56 l35 29 8 -22 c5 -13 7 -51 4
-86z m-514 -11 c60 -7 80 -22 69 -50 -20 -55 -205 -302 -330 -441 l-40 -45 11
37 c6 20 20 39 29 41 25 7 24 59 -2 82 -19 17 -19 19 -3 37 15 17 15 19 -3 32
-16 12 -20 12 -31 -4 -12 -17 -15 -17 -43 -3 -27 13 -33 13 -54 0 -13 -9 -26
-28 -30 -44 -5 -18 -45 -63 -116 -128 -99 -91 -109 -103 -110 -136 0 -30 8
-42 61 -92 34 -31 66 -57 70 -57 28 0 -1 -45 -78 -122 -80 -81 -87 -86 -107
-73 -12 8 -38 16 -59 18 -21 2 -40 7 -43 9 -3 3 -8 37 -11 75 -6 69 -5 70 21
77 14 3 26 13 26 21 0 11 11 15 38 15 44 0 82 23 82 51 0 21 -24 34 -83 44
-20 3 -43 13 -50 22 -6 9 -27 31 -46 50 -42 43 -40 67 24 202 40 86 45 106 45
167 l1 69 80 70 80 70 162 5 c252 9 377 9 440 1z m692 -601 c4 -162 5 -293 2
-290 -3 3 -30 61 -60 130 -30 69 -70 159 -89 200 -41 91 -84 227 -74 237 3 4
48 14 99 24 67 12 95 13 104 5 8 -8 13 -104 18 -306z m163 299 c36 -7 52 -15
52 -26 0 -26 -183 -613 -191 -613 -4 0 -7 17 -6 38 1 20 -2 164 -6 319 -5 155
-6 287 -3 292 6 9 71 5 154 -10z m-2688 -21 c0 -51 -19 -404 -26 -485 l-6 -73
-38 0 -37 0 -46 238 c-26 130 -49 256 -53 279 l-6 42 41 11 c49 13 61 8 61
-26 0 -13 4 -24 8 -24 5 0 7 13 4 29 -4 31 5 36 71 40 24 1 27 -2 27 -31z
m533 25 c-7 -2 -21 -2 -30 0 -10 3 -4 5 12 5 17 0 24 -2 18 -5z m-374 -18 c30
-8 57 -18 61 -22 5 -4 -16 -104 -46 -220 -52 -205 -56 -215 -101 -273 -34 -45
-52 -60 -67 -58 -12 2 -20 8 -20 13 1 6 7 132 14 280 6 149 13 276 15 283 6
16 77 15 144 -3z m-335 -270 c26 -137 50 -261 53 -275 5 -22 4 -23 -10 -10
-19 19 -287 437 -287 449 0 12 184 102 191 93 3 -4 27 -119 53 -257z m3019
232 c40 -19 82 -43 94 -53 l22 -19 -185 -270 c-195 -285 -200 -292 -210 -283
-4 5 160 562 191 646 6 17 7 16 88 -21z m-2514 -24 c2 -1 -4 -14 -14 -29 -15
-23 -16 -33 -6 -65 11 -37 11 -37 -71 -148 -46 -60 -86 -110 -89 -110 -8 -1
78 344 92 370 9 18 11 18 47 2 20 -10 39 -19 41 -20z m-629 -259 c72 -113 130
-207 128 -209 -7 -7 -418 260 -418 272 0 11 138 143 151 143 4 0 66 -93 139
-206z m3327 166 c28 -22 63 -56 78 -76 23 -30 25 -38 14 -48 -28 -25 -516
-386 -522 -386 -7 0 366 550 374 550 4 0 29 -18 56 -40z m-807 -155 c150 -198
200 -272 200 -299 0 -31 8 -35 -298 181 l-202 144 37 45 c31 38 110 114 119
114 2 0 66 -83 144 -185z m-1730 91 c0 -51 21 -84 58 -88 22 -2 -12 -25 -182
-121 -114 -65 -210 -117 -211 -115 -3 3 134 180 246 316 50 60 63 71 75 61 8
-6 14 -29 14 -53z m1784 -88 c42 -82 75 -148 73 -148 -6 0 -217 277 -217 284
0 3 14 3 30 0 21 -5 30 -3 30 6 0 18 -2 21 84 -142z m-2647 -114 c125 -80 228
-151 228 -158 0 -7 -16 -26 -36 -44 l-35 -31 -236 88 c-130 49 -241 91 -247
95 -7 5 -7 15 0 34 11 28 89 162 95 162 2 0 106 -66 231 -146z m3549 94 c39
-61 75 -142 66 -149 -10 -8 -618 -219 -632 -219 -7 0 -10 4 -8 10 4 14 520
399 535 399 7 1 25 -18 39 -41z m-971 -172 c221 -156 291 -212 243 -194 -8 3
-149 47 -314 98 -164 51 -302 96 -307 99 -10 10 16 81 54 148 29 51 32 53 53
40 11 -8 134 -94 271 -191z m-1578 145 c20 -29 49 -137 43 -158 -1 -5 -43 -20
-93 -34 -51 -15 -131 -38 -180 -53 -75 -22 -95 -24 -139 -16 -28 6 -70 10 -94
10 -46 0 -54 9 -28 31 31 25 449 258 459 255 6 -1 20 -17 32 -35z m-1095 -218
c128 -47 237 -89 242 -94 4 -4 5 -26 1 -49 l-7 -42 -77 6 c-123 11 -441 52
-447 58 -13 13 30 208 46 208 5 0 114 -39 242 -87z m3737 35 c20 -74 29 -169
17 -174 -6 -2 -160 -3 -341 -2 l-330 3 315 111 c173 61 318 109 321 107 3 -1
11 -22 18 -45z m-1110 -77 c162 -50 297 -94 299 -96 9 -8 -22 -14 -88 -18
l-65 -3 77 -2 c67 -2 77 -5 83 -22 3 -11 11 -20 16 -20 6 0 9 -6 7 -13 -5 -22
-372 -539 -386 -545 -15 -5 -164 137 -157 149 3 3 122 96 264 205 143 109 258
200 256 202 -2 2 -122 -86 -266 -197 -178 -136 -266 -197 -274 -191 -6 5 -31
48 -56 95 -34 67 -41 87 -31 94 8 4 151 55 320 111 168 57 301 105 296 107 -6
2 -150 -44 -319 -102 -224 -76 -311 -102 -316 -93 -10 17 -29 127 -29 171 l0
37 48 1 c26 1 106 5 177 9 l130 8 -177 -1 c-98 -1 -180 1 -183 4 -5 6 9 137
21 188 7 31 1 32 353 -78z m-1479 19 l0 -60 -37 1 c-53 0 -262 24 -267 30 -6
6 251 86 282 88 20 1 22 -3 22 -59z m-725 10 c-3 -5 -16 -10 -28 -9 -21 0 -21
1 -2 9 28 12 37 12 30 0z m-71 -26 c7 -17 -21 -64 -38 -64 -6 0 -18 5 -26 10
-12 8 -10 14 15 40 33 34 40 36 49 14z m122 -23 c-15 -29 -56 -61 -56 -44 0
12 61 85 67 79 2 -2 -3 -18 -11 -35z m199 4 c53 -7 48 -18 -15 -29 -29 -6 -41
-2 -65 19 l-30 26 30 -5 c17 -3 52 -8 80 -11z m-75 -30 c10 -12 10 -15 -3 -15
-8 0 -20 7 -27 15 -10 12 -10 15 3 15 8 0 20 -7 27 -15z m425 -8 c61 -7 116
-16 123 -20 6 -5 12 -19 12 -32 0 -21 -6 -25 -45 -31 -52 -7 -286 1 -360 14
-46 7 -104 37 -105 54 0 3 19 13 43 21 46 17 128 16 332 -6z m-714 -17 c13 0
11 -54 -3 -68 -7 -7 -20 -12 -30 -12 -14 0 -18 8 -18 38 0 43 7 55 28 47 7 -3
18 -5 23 -5z m1244 3 c-11 -3 -23 -10 -26 -15 -8 -12 -29 -2 -29 13 0 5 17 8
38 8 21 -1 29 -3 17 -6z m-1586 -58 c119 -14 229 -29 245 -33 24 -6 -12 -19
-218 -81 -137 -40 -252 -69 -256 -65 -11 12 -30 117 -30 166 0 46 -21 45 259
13z m3797 -32 c-19 -140 -28 -175 -45 -170 -9 3 -81 25 -161 51 -80 25 -218
68 -308 96 -89 28 -160 56 -157 61 4 5 145 9 342 9 l336 0 -7 -47z m-411 -67
c355 -110 375 -117 375 -127 0 -21 -49 -128 -85 -183 -45 -71 -145 -176 -165
-176 -12 1 -378 477 -414 538 -12 20 -16 23 264 -173 274 -192 300 -209 300
-202 0 3 -124 92 -275 198 -239 168 -311 225 -262 206 6 -2 125 -39 262 -81z
m-2205 58 c0 -14 -8 -15 -57 -9 -96 12 -106 24 -20 24 64 1 77 -2 77 -15z
m-817 -8 c22 -17 32 -81 15 -92 -8 -5 -9 0 -5 15 4 18 3 20 -9 10 -16 -13 -37
0 -56 34 -8 16 -7 23 8 34 22 16 24 16 47 -1z m2923 -271 c173 -231 204 -277
194 -290 -18 -22 -172 -97 -181 -88 -10 10 -229 622 -229 640 0 7 2 13 5 13 3
0 98 -124 211 -275z m-3006 262 c0 -7 -402 -332 -414 -335 -13 -3 -55 73 -80
146 -12 33 -13 44 -3 47 36 14 474 144 485 144 6 1 12 0 12 -2z m379 -11 c6
-7 21 -14 34 -14 12 0 123 -36 247 -80 l225 -80 -3 -29 c-4 -31 -38 -73 -60
-73 -10 0 -12 -7 -8 -25 6 -24 4 -25 -35 -25 -40 0 -48 6 -153 107 -194 188
-226 213 -71 56 82 -84 147 -154 145 -156 -3 -3 -53 -8 -111 -11 l-107 -7
-106 152 -107 152 22 23 c25 27 70 32 88 10z m2386 -338 l8 -338 -51 0 c-56 0
-152 17 -165 30 -7 6 143 548 179 649 16 45 23 -40 29 -341z m-135 21 c-50
-172 -93 -315 -96 -318 -3 -3 -24 2 -47 10 -27 10 -41 20 -38 29 14 55 14 56
-3 36 -8 -10 -17 -24 -19 -29 -2 -7 -23 1 -50 17 l-48 27 51 72 c28 40 115
163 193 274 77 111 143 201 144 199 2 -2 -37 -145 -87 -317z m259 5 c61 -171
111 -316 111 -322 0 -6 -9 -13 -19 -17 -40 -12 -186 -33 -192 -26 -4 3 -9 158
-12 345 -4 186 -5 337 -3 335 2 -2 53 -144 115 -315z m-2856 269 c15 -22 23
-41 18 -47 -20 -26 -278 -373 -293 -395 l-17 -24 -34 25 c-40 31 -122 136
-113 145 18 18 402 331 407 332 3 1 18 -16 32 -36z m664 -9 c167 -32 203 -42
203 -56 0 -24 -11 -48 -21 -48 -14 0 -413 140 -419 147 -3 3 4 4 15 1 11 -3
111 -22 222 -44z m-338 -128 c56 -80 101 -147 101 -150 0 -3 -36 -6 -80 -6
l-81 0 -21 48 c-12 28 -23 79 -27 127 -3 44 -10 86 -14 93 -9 13 -1 32 13 32
4 0 54 -65 109 -144z m1061 94 c0 -52 -15 -65 -39 -36 -9 11 -7 22 10 50 11
20 23 36 25 36 2 0 4 -22 4 -50z m-1316 -25 c15 -10 26 -29 30 -54 5 -34 -5
-62 -90 -242 -53 -112 -99 -207 -102 -211 -8 -8 -134 52 -171 81 l-24 19 83
113 c164 224 231 309 241 309 5 0 20 -7 33 -15z m1036 -39 c0 -7 -7 -19 -15
-26 -12 -10 -18 -10 -30 0 -25 21 -18 40 15 40 19 0 30 -5 30 -14z m221 -52
c11 -14 9 -19 -11 -34 -25 -19 -25 -19 -31 8 -3 15 -4 30 -2 35 7 12 30 8 44
-9z m-141 -46 c0 -20 -12 -23 -41 -8 -24 13 -25 36 -1 49 20 12 42 -10 42 -41z
m-961 -17 c26 -72 26 -71 -3 -71 -22 0 -24 3 -19 34 3 19 1 36 -6 40 -13 8
-15 56 -2 56 4 0 18 -26 30 -59z m-113 -93 l25 -11 -3 -151 -3 -151 -30 3
c-65 5 -175 34 -175 45 0 7 35 86 77 177 68 145 78 161 81 132 2 -24 10 -36
28 -44z m615 -7 l22 -18 -22 -31 c-31 -45 -128 -125 -141 -117 -6 4 -35 43
-66 88 l-54 82 37 6 c21 3 75 7 119 8 66 1 86 -3 105 -18z m44 9 c-3 -5 -13
-10 -21 -10 -8 0 -14 5 -14 10 0 6 9 10 21 10 11 0 17 -4 14 -10z m-462 -138
c27 -73 46 -139 44 -146 -6 -14 -145 -38 -182 -32 -19 3 -20 12 -23 147 -3
164 1 172 73 167 l40 -3 48 -133z m203 43 l63 -90 -27 -23 c-37 -30 -160 -78
-172 -66 -8 8 -100 254 -100 268 0 4 39 5 87 4 l86 -3 63 -90z"/>
</g>
</svg>
